<svg xmlns="http://www.w3.org/2000/svg" viewBox="0 0 199.41 139.75"><defs><style>.cls-1{fill:#1d1d1b;}</style></defs><g id="Layer_2" data-name="Layer 2"><g id="PRINT"><path class="cls-1" d="M12.51,42.93c0-.21.05-.42.06-.63,0-.7-.08.59-.09.61a8.63,8.63,0,0,0,.24-1.25,22,22,0,0,1,.84-2.84c.08-.2.16-.39.23-.59.24-.65-.2.5-.21.51a5.82,5.82,0,0,0,.55-1.15A29,29,0,0,1,15.61,35c.46-.73.95-1.43,1.45-2.12.69-1-.68.84,0,0,.33-.41.66-.83,1-1.23,1.09-1.33,2.23-2.63,3.41-3.88a74.56,74.56,0,0,1,7.41-6.81c.52-.43-.49.37-.48.37a4.72,4.72,0,0,0,.63-.48L30,20.1c.7-.5,1.4-1,2.12-1.44q2.13-1.39,4.4-2.6c.87-.46,1.75-.9,2.65-1.32l1.26-.56c.63-.29-.61.25-.59.24.25-.07.5-.2.74-.29a53.66,53.66,0,0,1,5.67-1.86,6.33,6.33,0,0,0,4.37-7.69A6.37,6.37,0,0,0,42.92.22C27.61,4.32,13.85,15,5.16,28.14A31.2,31.2,0,0,0,0,42.93c-.25,3.27,3.06,6.39,6.25,6.25a6.4,6.4,0,0,0,6.25-6.25Z"/><path class="cls-1" d="M30,80.94a62.33,62.33,0,0,1,2.78-9l.37-.9c.33-.83-.65,1.46-.09.24.32-.71.63-1.42,1-2.12q1-2.1,2.18-4.13a74.5,74.5,0,0,1,4.91-7.51,4.51,4.51,0,0,0,.7-.94l-.5.65.49-.62c.4-.51.82-1,1.23-1.51,1-1.21,2-2.39,3.11-3.54Q49.4,48.12,52.93,45q1.6-1.44,3.27-2.8L57.72,41c.39-.3,1.39-.75,0,0A11.23,11.23,0,0,0,58.93,40a95.41,95.41,0,0,1,16.6-10.12l1.17-.53c.4-.18,1.45-.9.09-.05a13.44,13.44,0,0,1,2.4-.94q2.41-.88,4.89-1.55c1.51-.4,3-.74,4.59-1,.22,0,1.06-.3,1.26-.2-.05,0-1.59.18-.39.06,1-.1,2-.2,3-.24a46,46,0,0,1,4.84,0c.87.05,1.75.15,2.62.23,1.15.11-.2-.06-.35-.06a11.44,11.44,0,0,1,1.74.27,58.26,58.26,0,0,1,9.79,2.64c.84.31,1.66.63,2.48,1,1.43.57-1.25-.57.14.07l1.22.54c1.61.75,3.19,1.56,4.74,2.41a82.92,82.92,0,0,1,8.17,5.2c.57.4,1.12.82,1.68,1.23,1.17.88-1.09-.87,0,.05l1,.78q2,1.59,3.78,3.28A84.92,84.92,0,0,1,141.1,50c.64.74,1.26,1.48,1.87,2.24a5.6,5.6,0,0,1,.78,1l-.34-.44.38.49c1.07,1.43,2.09,2.88,3.08,4.36a73.37,73.37,0,0,1,5.48,9.54c.18.39.35.79.53,1.17.28.63.23.53-.12-.31.11.27.21.53.31.8q.47,1.18.87,2.4a43.75,43.75,0,0,1,1.33,5.51c.17.92-.14-1.62,0-.21,0,.55.1,1.1.13,1.65a26.82,26.82,0,0,1,0,2.69c0,.34-.06.69-.08,1-.07.7-.05.55.07-.42,0,.28-.09.55-.14.82a23.81,23.81,0,0,1-.73,2.88l9.18-3.74c-10.66-5.59-22-10.33-34-12.26-6.87-1.11-14.21-2-20.7,1.15a16.06,16.06,0,0,0-6.73,6.23,19.26,19.26,0,0,0-2.09,8.73c0,.82.33-1.72.08-.58,0,.19-.07.39-.12.58-.39,1.58.52-1.39,0,0a3.25,3.25,0,0,1,2.72-1.82c.4,0,1.94.42.91,0,1.6.66.29.12,0-.06-2.52-1.4-4.94-2.93-7.52-4.23a58.57,58.57,0,0,0-17.11-5.94,40.91,40.91,0,0,0-19,1,33.69,33.69,0,0,0-15,9.81c-8.35,9.59-12.08,23.23-6,35,5,9.72,15.62,15.62,25.83,18.36,23.85,6.38,49.06-1.25,71.12-10.41,11.2-4.65,22.25-10,32.14-17.07,9.22-6.6,17.07-14.64,24.27-23.37,1.72-2.08,3.4-4.2,5.08-6.32a6.79,6.79,0,0,0,1.83-4.42,6.37,6.37,0,0,0-1.83-4.42c-2.26-2.07-6.68-2.74-8.84,0-6.44,8.16-13.11,16.21-21,23.07-.95.82-1.91,1.63-2.89,2.42-.33.27-2,1.46-.57.47-.58.4-1.13.86-1.7,1.28-2.28,1.66-4.65,3.21-7.05,4.7a158.12,158.12,0,0,1-14.88,8.06c-2.55,1.21-5.13,2.36-7.73,3.47-.88.38,1.42-.58,0,0l-.85.35-1.91.78c-1.34.54-2.69,1.07-4,1.58-5.29,2-10.63,3.88-16.07,5.43q-4.2,1.22-8.47,2.15c-1.34.29-2.69.56-4,.81l-1.8.31-1.13.17c-.19,0-1.76.26-.74.12s-.42,0-.52.06l-.91.1q-.9.1-1.8.18c-1.5.14-3,.24-4.51.29A71.69,71.69,0,0,1,77.9,127q-1-.08-2-.18l-.89-.11c-1.49-.16,1.07.18.11,0-1.4-.24-2.8-.46-4.19-.77a53.78,53.78,0,0,1-7.66-2.25l-.69-.28c-1-.38.39.15.47.2a13.63,13.63,0,0,0-1.69-.77c-1-.5-2-1-2.94-1.6s-1.86-1.2-2.78-1.84.91.74.25.2l-.71-.58c-.46-.4-.92-.8-1.36-1.22-.78-.75-1.5-1.55-2.2-2.37-.27-.32-.56-.9.31.42-.13-.2-.28-.38-.42-.58-.37-.53-.72-1.08-1-1.64s-.52-.93-.75-1.41a5.44,5.44,0,0,0-.3-.65c.79,1.12.38.94.16.34a23.83,23.83,0,0,1-.94-3.43c-.26-1.24.07.4,0,.39a4.36,4.36,0,0,1-.09-1.07c0-.64,0-1.28,0-1.92s.08-1.28.14-1.92c.08-.93-.32,1.58,0,.18.1-.42.17-.85.26-1.27A27.33,27.33,0,0,1,50,99.39l.08-.2c.25-.63.21-.53-.14.3a4.41,4.41,0,0,1,.36-.79c.31-.65.64-1.29,1-1.91.59-1,1.25-2,1.92-3s-.7.84-.14.16l.63-.76c.43-.5.87-1,1.33-1.47a33,33,0,0,1,2.62-2.39c.36-.3.81-.37-.33.25.21-.12.43-.31.64-.46.59-.41,1.2-.8,1.82-1.16s1.06-.59,1.6-.86l.77-.36c1.28-.62-1,.35-.12.06a39.76,39.76,0,0,1,3.85-1.18c.63-.15,1.25-.27,1.88-.37l.21,0c.7-.1.56-.08-.39,0a5.6,5.6,0,0,1,.85-.09,35.82,35.82,0,0,1,4.27-.12c.58,0,1.15,0,1.72.09l.85.08c.14,0,1.55.12.45,0s.3,0,.44.07l.85.15c.71.14,1.42.29,2.13.46,1.3.32,2.57.69,3.84,1.1.63.21,1.25.43,1.88.67l1,.39c.37.15,1.69.53.15,0a25.35,25.35,0,0,1,3.62,1.69c1.27.63,2.51,1.3,3.74,2,3,1.67,5.9,4,9.45,4A9.28,9.28,0,0,0,112,89.24a18.72,18.72,0,0,0,.69-4c0-.48.09-1,.14-1.43l.06-.63c.1-1.18-.34,1.48,0,.45.08-.28.16-.58.22-.86.17-.76-.62,1.19-.23.52.15-.25.3-.51.43-.77.22-.42.69-.59-.36.4.39-.36.75-.77,1.12-1.15.58-.58-1.33.85-.27.21.31-.19.61-.4.93-.57s.45-.2.64-.33c-1.06.73-1,.36-.5.21.74-.21,1.46-.41,2.2-.6.54-.14.66-.42-.3,0a3.58,3.58,0,0,1,.91-.08c.77,0,1.54-.06,2.31,0,1.37,0,2.74.15,4.1.29l1.12.13c1,.1-1.59-.24-.1,0,.74.12,1.48.23,2.21.36,2.73.47,5.43,1.09,8.1,1.83s5.31,1.62,7.91,2.58c1.27.47,2.52,1,3.78,1.49,1,.42-.08,0-.25-.11.35.13.69.3,1,.45l2.26,1c2.46,1.13,4.89,2.34,7.28,3.59a6.33,6.33,0,0,0,9.18-3.73c4.64-14.72-3.27-30-11.95-41.53s-20-21.45-33.24-27.58A66.8,66.8,0,0,0,98.26,13a53.77,53.77,0,0,0-21.59,3c-13.38,4.68-25.61,13.2-35.75,23C30.09,49.58,21.38,62.77,18,77.61c-.73,3.18,1,6.92,4.37,7.69,3.18.73,6.91-1,7.68-4.36Z"/></g></g></svg>